<?xml version="1.0" encoding="UTF-8"?>
<!DOCTYPE svg PUBLIC "-//W3C//DTD SVG 1.1//EN" "http://www.w3.org/Graphics/SVG/1.1/DTD/svg11.dtd">
<svg xmlns="http://www.w3.org/2000/svg" version="1.1" width="20px" height="16px" style="shape-rendering:geometricPrecision; text-rendering:geometricPrecision; image-rendering:optimizeQuality; fill-rule:evenodd; clip-rule:evenodd" xmlns:xlink="http://www.w3.org/1999/xlink">
<g><path style="opacity:0.523" fill="#364851" d="M 4.5,-0.5 C 7.83333,-0.5 11.1667,-0.5 14.5,-0.5C 14.5,0.166667 14.5,0.833333 14.5,1.5C 11.1667,2.83333 7.83333,2.83333 4.5,1.5C 4.5,0.833333 4.5,0.166667 4.5,-0.5 Z"/></g>
<g><path style="opacity:0.63" fill="#2698f3" d="M 4.5,1.5 C 7.83333,2.83333 11.1667,2.83333 14.5,1.5C 16.4841,1.484 17.4841,2.484 17.5,4.5C 16.9118,8.22523 16.2451,11.8919 15.5,15.5C 11.5,15.5 7.5,15.5 3.5,15.5C 2.42528,11.2354 1.92528,6.90202 2,2.5C 2.67076,1.74756 3.5041,1.41423 4.5,1.5 Z"/></g>
<g><path style="opacity:1" fill="#8ac5f6" d="M 5.5,6.5 C 8.3553,5.1968 11.3553,5.1968 14.5,6.5C 13.9588,8.53524 13.2922,10.5352 12.5,12.5C 10.2492,13.8647 8.24917,13.5314 6.5,11.5C 8.31206,11.574 10.3121,11.2407 12.5,10.5C 4.57624,9.03775 4.57624,7.87108 12.5,7C 10.1902,6.50335 7.85684,6.33669 5.5,6.5 Z"/></g>
</svg>
