<?xml version="1.0" encoding="UTF-8"?>
<!DOCTYPE svg PUBLIC "-//W3C//DTD SVG 1.1//EN" "http://www.w3.org/Graphics/SVG/1.1/DTD/svg11.dtd">
<svg xmlns="http://www.w3.org/2000/svg" version="1.1" width="161px" height="90px" style="shape-rendering:geometricPrecision; text-rendering:geometricPrecision; image-rendering:optimizeQuality; fill-rule:evenodd; clip-rule:evenodd" xmlns:xlink="http://www.w3.org/1999/xlink">
<g><path style="opacity:0.784" fill="#fefffe" d="M 88.5,21.5 C 89.8333,21.5 91.1667,21.5 92.5,21.5C 92.3341,26.5111 92.5007,31.5111 93,36.5C 95.0353,46.9738 97.5353,57.3071 100.5,67.5C 97.7615,68.0352 95.9282,67.0352 95,64.5C 92.6874,57.2496 90.6874,49.9162 89,42.5C 86.4693,46.7901 82.9693,47.6235 78.5,45C 77.2125,43.5905 76.0458,42.0905 75,40.5C 75.3716,45.532 76.2049,50.532 77.5,55.5C 76.0222,55.762 74.6888,55.4287 73.5,54.5C 70.0107,46.1853 68.6773,37.5186 69.5,28.5C 71.288,28.2148 72.9547,28.5481 74.5,29.5C 77.1427,34.1321 80.1427,38.4654 83.5,42.5C 84.8064,41.0878 85.6397,39.4211 86,37.5C 86.9011,32.1289 87.7345,26.7956 88.5,21.5 Z"/></g>
<g><path style="opacity:0.78" fill="#fefffe" d="M 19.5,23.5 C 20.8333,23.5 22.1667,23.5 23.5,23.5C 23.5,29.5 23.5,35.5 23.5,41.5C 25.7505,41.8186 27.7505,41.3186 29.5,40C 28.4744,34.5862 27.8077,29.0862 27.5,23.5C 28.8333,23.5 30.1667,23.5 31.5,23.5C 32.3307,29.4791 32.9973,35.4791 33.5,41.5C 34.675,41.281 35.675,41.6143 36.5,42.5C 35.383,43.9494 34.7163,45.6161 34.5,47.5C 35.3328,51.4862 35.4994,55.4862 35,59.5C 33.8173,60.731 32.6507,60.731 31.5,59.5C 30.7315,55.5548 30.2315,51.5548 30,47.5C 28.33,45.3017 26.33,44.9683 24,46.5C 24.051,51.4775 24.2177,56.4775 24.5,61.5C 23.1779,61.67 22.0113,61.3366 21,60.5C 20.2029,55.8255 19.3696,51.1588 18.5,46.5C 16.1638,45.4061 16.1638,44.0728 18.5,42.5C 19.4963,36.2015 19.8297,29.8682 19.5,23.5 Z"/></g>
<g><path style="opacity:0.782" fill="#fefffe" d="M 62.5,24.5 C 67.544,24.1725 72.544,24.5059 77.5,25.5C 77.1667,25.8333 76.8333,26.1667 76.5,26.5C 69.1994,27.6627 61.8661,28.6627 54.5,29.5C 56.6241,38.7064 59.4574,47.7064 63,56.5C 63.4966,58.8098 63.6633,61.1432 63.5,63.5C 62.1667,63.5 60.8333,63.5 59.5,63.5C 59.6602,61.8008 59.4935,60.1341 59,58.5C 55.3369,49.6776 52.1703,40.6776 49.5,31.5C 44.113,31.8882 38.7797,31.3882 33.5,30C 34.6226,28.9563 35.9559,28.2896 37.5,28C 46.0604,26.1406 54.3937,24.9739 62.5,24.5 Z"/></g>
<g><path style="opacity:0.766" fill="#fefffe" d="M 102.5,25.5 C 104.103,25.3118 105.437,25.8118 106.5,27C 103.789,37.2349 104.289,47.4016 108,57.5C 108.333,57.8333 108.667,58.1667 109,58.5C 113.534,55.6548 118.368,54.6548 123.5,55.5C 118.634,59.3489 113.134,62.0155 107,63.5C 105.674,63.2451 104.674,62.5784 104,61.5C 100.266,49.5471 99.766,37.5471 102.5,25.5 Z"/></g>
<g><path style="opacity:0.793" fill="#fefffe" d="M 140.5,37.5 C 143.572,37.1826 146.572,37.5159 149.5,38.5C 142.916,40.1421 136.916,42.9755 131.5,47C 134.289,47.2414 136.956,47.908 139.5,49C 142.488,52.5386 141.821,55.2053 137.5,57C 135.167,57.6667 132.833,57.6667 130.5,57C 130.043,56.586 129.709,56.086 129.5,55.5C 131.902,54.4246 134.236,53.2579 136.5,52C 133.247,50.9635 129.914,50.2969 126.5,50C 125.446,48.6124 125.28,47.1124 126,45.5C 127.5,44 129,42.5 130.5,41C 134.109,40.2987 137.442,39.1321 140.5,37.5 Z"/></g>
</svg>
