<?xml version="1.0" encoding="UTF-8"?>
<!DOCTYPE svg PUBLIC "-//W3C//DTD SVG 1.1//EN" "http://www.w3.org/Graphics/SVG/1.1/DTD/svg11.dtd">
<svg xmlns="http://www.w3.org/2000/svg" version="1.1" width="305px" height="90px" style="shape-rendering:geometricPrecision; text-rendering:geometricPrecision; image-rendering:optimizeQuality; fill-rule:evenodd; clip-rule:evenodd" xmlns:xlink="http://www.w3.org/1999/xlink">
<g><path style="opacity:0.769" fill="#fefffe" d="M 47.5,18.5 C 49.1439,18.2865 50.6439,18.6198 52,19.5C 53.2565,28.1541 54.4231,36.8207 55.5,45.5C 56.5,45.5 57.5,45.5 58.5,45.5C 58.2767,47.3417 57.9434,49.175 57.5,51C 58.9411,55.8205 60.2744,60.6539 61.5,65.5C 59.712,65.7852 58.0453,65.4519 56.5,64.5C 55.0851,60.334 53.7518,56.1674 52.5,52C 50.5116,51.8195 48.5116,51.9862 46.5,52.5C 46.0484,55.876 45.3818,59.2094 44.5,62.5C 41.5939,63.9464 40.2606,62.9464 40.5,59.5C 42.4527,45.7405 44.786,32.0738 47.5,18.5 Z M 47.5,47.5 C 47.5775,43.1234 48.0775,38.7901 49,34.5C 49.8337,38.0025 50.6671,41.5025 51.5,45C 50.9681,47.0197 49.6348,47.853 47.5,47.5 Z"/></g>
<g><path style="opacity:0.769" fill="#fefffe" d="M 94.5,18.5 C 97.8595,17.7904 99.6929,19.1238 100,22.5C 100.348,29.9226 101.348,37.256 103,44.5C 105.837,45.8688 106.337,47.8688 104.5,50.5C 106.139,55.4364 107.472,60.4364 108.5,65.5C 106.833,65.5 105.167,65.5 103.5,65.5C 102.442,61.1565 101.276,56.8232 100,52.5C 97.9189,51.6669 95.7522,51.6669 93.5,52.5C 93.0484,55.876 92.3818,59.2094 91.5,62.5C 88.867,63.9985 87.5336,63.1652 87.5,60C 89.6792,46.0912 92.0125,32.2578 94.5,18.5 Z M 95.5,35.5 C 97.0766,38.3556 98.0766,41.5222 98.5,45C 97.9681,47.0197 96.6348,47.853 94.5,47.5C 94.8333,43.5 95.1667,39.5 95.5,35.5 Z"/></g>
<g><path style="opacity:0.763" fill="#fefffe" d="M 27.5,22.5 C 29.604,22.2011 31.604,22.5344 33.5,23.5C 30.9632,25.2674 28.2966,26.7674 25.5,28C 29.0542,35.9926 32.2209,44.1592 35,52.5C 37.092,59.0668 34.7587,62.0668 28,61.5C 25.0746,61.4771 22.2413,60.9771 19.5,60C 15.2949,56.3721 15.6282,53.5388 20.5,51.5C 21.1101,55.4437 23.4434,57.7771 27.5,58.5C 29.4974,58.0142 30.8307,56.8475 31.5,55C 28.0668,46.2 24.7335,37.3666 21.5,28.5C 17.6511,30.7648 13.6511,32.4314 9.5,33.5C 9.28649,31.8561 9.61983,30.3561 10.5,29C 16.1596,26.5073 21.8263,24.3407 27.5,22.5 Z"/></g>
<g><path style="opacity:0.752" fill="#fefffe" d="M 74.5,23.5 C 76.1667,23.5 77.8333,23.5 79.5,23.5C 80.8318,32.8253 82.1651,42.1586 83.5,51.5C 83.519,54.8419 82.8524,58.0086 81.5,61C 80.1667,61.6667 78.8333,61.6667 77.5,61C 69.8499,54.536 65.5166,46.3693 64.5,36.5C 65.8333,36.5 67.1667,36.5 68.5,36.5C 70.3321,43.1624 73.4987,49.1624 78,54.5C 78.6667,49.8333 78.6667,45.1667 78,40.5C 76.9862,34.7815 75.8195,29.1148 74.5,23.5 Z"/></g>
<g><path style="opacity:0.766" fill="#fefffe" d="M 249.5,23.5 C 254.742,22.2706 258.575,23.9372 261,28.5C 274.129,25.6608 287.629,24.6608 301.5,25.5C 300.975,26.1924 300.308,26.6924 299.5,27C 292.48,27.7525 285.48,28.5859 278.5,29.5C 280.624,38.7064 283.457,47.7064 287,56.5C 287.497,58.8098 287.663,61.1432 287.5,63.5C 286.167,63.5 284.833,63.5 283.5,63.5C 283.66,61.8008 283.494,60.1341 283,58.5C 279.337,49.6776 276.17,40.6776 273.5,31.5C 269.297,31.2738 264.964,31.2738 260.5,31.5C 260.186,34.9466 259.352,38.2799 258,41.5C 256.014,45.3034 254.181,49.1367 252.5,53C 254.816,56.1311 256.149,59.6311 256.5,63.5C 255.022,63.762 253.689,63.4287 252.5,62.5C 245.522,53.734 242.022,43.734 242,32.5C 240.093,35.2867 238.593,35.12 237.5,32C 237.903,30.5272 238.57,29.1939 239.5,28C 242.893,26.38 246.226,24.88 249.5,23.5 Z M 249.5,27.5 C 251.5,27.5 253.5,27.5 255.5,27.5C 256.683,34.9483 254.683,41.2816 249.5,46.5C 247.337,41.1861 246.004,35.6861 245.5,30C 247.066,29.3918 248.4,28.5585 249.5,27.5 Z"/></g>
<g><path style="opacity:0.771" fill="#fefffe" d="M 187.5,26.5 C 191.846,26.3343 196.179,26.501 200.5,27C 202.032,27.6995 203.032,28.8662 203.5,30.5C 198.219,37.2836 192.386,43.617 186,49.5C 183.866,51.5784 184.032,53.4117 186.5,55C 192.638,57.3276 198.972,58.8276 205.5,59.5C 206.354,58.4783 207.354,57.6449 208.5,57C 212.816,56.0036 217.149,55.1703 221.5,54.5C 220.628,47.7249 219.295,41.0582 217.5,34.5C 215.278,35.7783 212.944,36.7783 210.5,37.5C 207.149,37.012 206.816,35.8453 209.5,34C 215.616,29.7449 222.283,28.2449 229.5,29.5C 226.694,30.1051 224.36,31.4384 222.5,33.5C 223.824,39.7754 224.824,46.1087 225.5,52.5C 229.71,51.7393 233.877,50.7393 238,49.5C 241.038,50.5446 241.038,51.8779 238,53.5C 234.255,54.8944 230.422,55.8944 226.5,56.5C 226.5,57.8333 226.5,59.1667 226.5,60.5C 221.544,58.1721 216.544,58.3388 211.5,61C 212.337,62.0113 212.67,63.1779 212.5,64.5C 204.992,63.3318 197.492,61.9984 190,60.5C 190.128,62.1292 189.128,63.4625 187,64.5C 182.491,60.1627 179.491,54.8294 178,48.5C 176.032,43.307 175.366,37.9736 176,32.5C 179.372,29.4442 183.206,27.4442 187.5,26.5 Z M 193.5,28.5 C 195.989,28.5394 197.489,29.5394 198,31.5C 192.914,36.5171 187.914,41.5171 183,46.5C 180.742,42.8032 179.742,38.8032 180,34.5C 184.27,31.8061 188.77,29.8061 193.5,28.5 Z"/></g>
<g><path style="opacity:0.77" fill="#fefffe" d="M 128.5,27.5 C 130.833,27.5 133.167,27.5 135.5,27.5C 135.737,31.2733 135.237,34.9399 134,38.5C 133.586,38.9574 133.086,39.2907 132.5,39.5C 131.52,36.9135 131.187,34.2469 131.5,31.5C 125.34,32.4171 120.673,35.5838 117.5,41C 118.328,41.9147 119.328,42.5814 120.5,43C 126.292,43.8736 131.959,45.2069 137.5,47C 141.559,53.3613 139.893,58.028 132.5,61C 128.577,61.7927 124.744,61.626 121,60.5C 120.955,56.1763 122.621,55.5096 126,58.5C 130.309,57.9341 133.476,55.7674 135.5,52C 135.18,50.3468 134.18,49.3468 132.5,49C 128.531,48.1473 124.531,47.4807 120.5,47C 111.947,43.6741 111.28,39.0074 118.5,33C 121.767,30.8703 125.1,29.037 128.5,27.5 Z"/></g>
<g><path style="opacity:0.759" fill="#fefffe" d="M 152.5,29.5 C 154.429,29.2308 156.095,29.7308 157.5,31C 151.239,38.3553 147.905,46.8553 147.5,56.5C 150.862,57.3425 154.195,56.8425 157.5,55C 162.008,51.658 166.008,47.8246 169.5,43.5C 171.941,45.5282 172.108,47.8616 170,50.5C 163.821,58.7822 155.654,61.9489 145.5,60C 142.806,57.3466 141.973,54.1799 143,50.5C 145.101,42.9681 148.268,35.9681 152.5,29.5 Z"/></g>
</svg>
