<?xml version="1.0" encoding="UTF-8"?>
<!DOCTYPE svg PUBLIC "-//W3C//DTD SVG 1.1//EN" "http://www.w3.org/Graphics/SVG/1.1/DTD/svg11.dtd">
<svg xmlns="http://www.w3.org/2000/svg" version="1.1" width="239px" height="90px" style="shape-rendering:geometricPrecision; text-rendering:geometricPrecision; image-rendering:optimizeQuality; fill-rule:evenodd; clip-rule:evenodd" xmlns:xlink="http://www.w3.org/1999/xlink">
<g><path style="opacity:0.77" fill="#fefffe" d="M 208.5,16.5 C 219.019,14.6372 221.185,17.9705 215,26.5C 211.451,30.35 207.617,33.85 203.5,37C 209.205,36.0023 214.872,36.3356 220.5,38C 221.83,40.8773 221.664,43.7107 220,46.5C 213.503,53.8164 205.669,58.6497 196.5,61C 192.898,51.8969 191.065,42.3969 191,32.5C 190.517,33.448 190.351,34.448 190.5,35.5C 185.844,36.0282 184.677,34.3616 187,30.5C 193.19,24.1662 200.357,19.4995 208.5,16.5 Z M 210.5,20.5 C 212.028,20.5173 212.528,21.184 212,22.5C 206.968,27.8665 201.635,32.8665 196,37.5C 195.506,35.8659 195.34,34.1992 195.5,32.5C 194.448,32.6495 193.448,32.4828 192.5,32C 197.446,26.3693 203.446,22.536 210.5,20.5 Z M 211.5,39.5 C 213.713,39.848 215.713,40.6813 217.5,42C 216.874,42.7504 216.374,43.5838 216,44.5C 210.693,49.3182 205.027,53.6515 199,57.5C 198.256,53.2729 197.422,49.1062 196.5,45C 201.434,42.6369 206.434,40.8035 211.5,39.5 Z"/></g>
<g><path style="opacity:0.749" fill="#fefffe" d="M 86.5,17.5 C 87.8734,17.3433 89.2068,17.51 90.5,18C 97.7977,31.2099 101.798,45.2099 102.5,60C 101.5,60.6667 100.5,60.6667 99.5,60C 93,54.1667 86.5,48.3333 80,42.5C 81.5418,48.7873 83.7084,54.954 86.5,61C 84.9732,62.6324 83.3066,62.7991 81.5,61.5C 77.473,51.4238 74.473,41.0905 72.5,30.5C 74.1992,30.3398 75.8659,30.5065 77.5,31C 83.2939,39.128 90.1273,46.2947 98,52.5C 96.5094,40.349 92.3427,29.1824 85.5,19C 86.056,18.6174 86.3893,18.1174 86.5,17.5 Z"/></g>
<g><path style="opacity:0.772" fill="#fefffe" d="M 120.5,18.5 C 122.857,18.3367 125.19,18.5034 127.5,19C 127.957,19.414 128.291,19.914 128.5,20.5C 122.719,22.1012 118.552,25.7679 116,31.5C 112.15,38.0416 110.15,45.0416 110,52.5C 111.097,55.2648 113.097,56.9314 116,57.5C 124.672,55.6227 128.172,50.4561 126.5,42C 123.199,42.7953 119.866,43.962 116.5,45.5C 113.895,43.7642 113.895,41.9308 116.5,40C 128.13,34.3055 132.963,37.8055 131,50.5C 128.5,54.3333 125.333,57.5 121.5,60C 108.442,61.9412 103.275,56.4412 106,43.5C 109.333,34.1496 114.166,25.8162 120.5,18.5 Z"/></g>
<g><path style="opacity:0.797" fill="#fefffe" d="M 36.5,21.5 C 37.8333,21.5 39.1667,21.5 40.5,21.5C 40.3928,27.8798 40.8928,34.2131 42,40.5C 44.0768,49.5551 46.2435,58.5551 48.5,67.5C 46.8561,67.7135 45.3561,67.3802 44,66.5C 41.3644,58.9563 39.1977,51.2896 37.5,43.5C 32.395,47.8421 27.895,47.1755 24,41.5C 23.9513,46.2024 24.4513,50.8691 25.5,55.5C 24.1667,55.5 22.8333,55.5 21.5,55.5C 19.7605,49.9439 18.4272,44.2773 17.5,38.5C 18.0531,35.1833 18.3865,31.85 18.5,28.5C 20.1439,28.2865 21.6439,28.6198 23,29.5C 25.3493,34.2118 28.1826,38.5452 31.5,42.5C 33.5184,40.3029 34.685,37.6363 35,34.5C 35.7354,30.1866 36.2354,25.8533 36.5,21.5 Z"/></g>
<g><path style="opacity:0.762" fill="#fefffe" d="M 155.5,27.5 C 164.899,26.6876 173.565,28.8542 181.5,34C 185.13,37.0498 186.297,40.8831 185,45.5C 178.594,55.7951 169.428,62.2951 157.5,65C 154.854,65.4974 152.187,65.6641 149.5,65.5C 149.038,60.7558 150.538,59.7558 154,62.5C 158.881,61.3724 163.381,59.3724 167.5,56.5C 165.194,48.2759 163.361,39.9426 162,31.5C 161.586,31.0426 161.086,30.7093 160.5,30.5C 158.269,31.9034 155.936,33.0701 153.5,34C 159.13,42.6061 158.797,50.9394 152.5,59C 143.163,60.744 137.663,56.9106 136,47.5C 135.126,41.2015 136.293,35.3682 139.5,30C 143.558,29.2334 147.558,29.4001 151.5,30.5C 152.901,29.4793 154.235,28.4793 155.5,27.5 Z M 166.5,31.5 C 183.103,36.1385 184.77,43.8052 171.5,54.5C 169.63,46.8862 167.963,39.2195 166.5,31.5 Z M 143.5,32.5 C 146.263,32.7438 148.429,34.0771 150,36.5C 153.676,42.4298 154.01,48.4298 151,54.5C 147.952,56.6982 145.286,56.0316 143,52.5C 139.524,45.6543 139.69,38.9876 143.5,32.5 Z"/></g>
<g><path style="opacity:0.765" fill="#fefffe" d="M 53.5,29.5 C 62.1231,27.6152 67.6231,30.9485 70,39.5C 71.5343,44.2697 71.5343,48.9364 70,53.5C 66.7535,59.6118 61.9201,61.1118 55.5,58C 53.0439,55.5925 51.2106,52.7591 50,49.5C 49.3372,43.4518 49.6705,37.4518 51,31.5C 51.9947,30.9341 52.828,30.2674 53.5,29.5 Z M 57.5,32.5 C 62.4051,33.9273 65.2384,37.2607 66,42.5C 67.5404,48.0657 66.2071,52.7323 62,56.5C 56.7085,53.8175 53.8752,49.4842 53.5,43.5C 53.8903,39.4278 55.2237,35.7611 57.5,32.5 Z"/></g>
</svg>
