<?xml version="1.0" encoding="UTF-8"?>
<!DOCTYPE svg PUBLIC "-//W3C//DTD SVG 1.1//EN" "http://www.w3.org/Graphics/SVG/1.1/DTD/svg11.dtd">
<svg xmlns="http://www.w3.org/2000/svg" version="1.1" width="24px" height="20px" style="shape-rendering:geometricPrecision; text-rendering:geometricPrecision; image-rendering:optimizeQuality; fill-rule:evenodd; clip-rule:evenodd" xmlns:xlink="http://www.w3.org/1999/xlink">
<g><path style="opacity:0.848" fill="#efefef" d="M 5.5,-0.5 C 9.5,-0.5 13.5,-0.5 17.5,-0.5C 19.4752,1.13696 21.4752,2.80363 23.5,4.5C 23.5,5.16667 23.5,5.83333 23.5,6.5C 22.5,6.5 21.5,6.5 20.5,6.5C 19.2223,6.21781 18.2223,5.55114 17.5,4.5C 17.44,3.95691 17.1067,3.62358 16.5,3.5C 15.6761,5.42064 14.3428,6.75398 12.5,7.5C 11.8333,7.5 11.1667,7.5 10.5,7.5C 7.19194,5.71615 5.52527,6.71615 5.5,10.5C 5.16667,10.5 4.83333,10.5 4.5,10.5C 4.25422,7.52989 2.58755,6.19656 -0.5,6.5C -0.5,5.83333 -0.5,5.16667 -0.5,4.5C 1.52483,2.80363 3.52483,1.13696 5.5,-0.5 Z"/></g>
<g><path style="opacity:1" fill="#575757" d="M -0.5,6.5 C 2.58755,6.19656 4.25422,7.52989 4.5,10.5C 3.26515,10.2786 2.26515,9.61191 1.5,8.5C 0.818153,9.24269 0.151487,9.90935 -0.5,10.5C -0.5,9.16667 -0.5,7.83333 -0.5,6.5 Z"/></g>
<g><path style="opacity:1" fill="#525252" d="M 17.5,4.5 C 17.6621,6.5273 17.4955,8.5273 17,10.5C 15.9887,11.3366 14.8221,11.67 13.5,11.5C 12.7659,10.2921 12.4326,8.95875 12.5,7.5C 14.3428,6.75398 15.6761,5.42064 16.5,3.5C 17.1067,3.62358 17.44,3.95691 17.5,4.5 Z"/></g>
<g><path style="opacity:1" fill="#72a965" d="M 10.5,7.5 C 10.7709,9.3797 10.1042,10.713 8.5,11.5C 7.39105,11.4431 6.39105,11.1098 5.5,10.5C 5.52527,6.71615 7.19194,5.71615 10.5,7.5 Z"/></g>
<g><path style="opacity:1" fill="#545454" d="M 20.5,6.5 C 21.5,6.5 22.5,6.5 23.5,6.5C 23.5,7.5 23.5,8.5 23.5,9.5C 20.203,8.14533 19.8696,8.64533 22.5,11C 20.7043,11.436 19.3709,10.7693 18.5,9C 19.0556,7.98894 19.7222,7.15561 20.5,6.5 Z"/></g>
<g><path style="opacity:0.847" fill="#ebebeb" d="M 17.5,4.5 C 18.2223,5.55114 19.2223,6.21781 20.5,6.5C 19.7222,7.15561 19.0556,7.98894 18.5,9C 19.3709,10.7693 20.7043,11.436 22.5,11C 19.8696,8.64533 20.203,8.14533 23.5,9.5C 23.5,11.1667 23.5,12.8333 23.5,14.5C 21.4752,16.1964 19.4752,17.863 17.5,19.5C 13.5,19.5 9.5,19.5 5.5,19.5C 3.52483,17.863 1.52483,16.1964 -0.5,14.5C -0.5,13.1667 -0.5,11.8333 -0.5,10.5C 0.151487,9.90935 0.818153,9.24269 1.5,8.5C 2.26515,9.61191 3.26515,10.2786 4.5,10.5C 4.83333,10.5 5.16667,10.5 5.5,10.5C 6.39105,11.1098 7.39105,11.4431 8.5,11.5C 8.01463,16.1585 9.84796,17.4919 14,15.5C 14.5791,14.0715 14.4124,12.7382 13.5,11.5C 14.8221,11.67 15.9887,11.3366 17,10.5C 17.4955,8.5273 17.6621,6.5273 17.5,4.5 Z"/></g>
<g><path style="opacity:1" fill="#c5d6c4" d="M 10.5,7.5 C 11.1667,7.5 11.8333,7.5 12.5,7.5C 12.4326,8.95875 12.7659,10.2921 13.5,11.5C 14.4124,12.7382 14.5791,14.0715 14,15.5C 9.84796,17.4919 8.01463,16.1585 8.5,11.5C 10.1042,10.713 10.7709,9.3797 10.5,7.5 Z"/></g>
</svg>
