<?xml version="1.0" encoding="UTF-8"?>
<!DOCTYPE svg PUBLIC "-//W3C//DTD SVG 1.1//EN" "http://www.w3.org/Graphics/SVG/1.1/DTD/svg11.dtd">
<svg xmlns="http://www.w3.org/2000/svg" version="1.1" width="48px" height="48px" style="shape-rendering:geometricPrecision; text-rendering:geometricPrecision; image-rendering:optimizeQuality; fill-rule:evenodd; clip-rule:evenodd" xmlns:xlink="http://www.w3.org/1999/xlink">
<g><path style="opacity:1" fill="#2db6ed" d="M 21.5,7.5 C 15.5359,11.1523 9.5359,14.819 3.5,18.5C 3.5,14.8333 3.5,11.1667 3.5,7.5C 9.5,7.5 15.5,7.5 21.5,7.5 Z"/></g>
<g><path style="opacity:1" fill="#2ab0ea" d="M 21.5,7.5 C 23.8333,7.5 26.1667,7.5 28.5,7.5C 24.8421,11.1612 20.5088,13.4945 15.5,14.5C 15.1667,15.5 14.5,16.1667 13.5,16.5C 10.5541,19.3131 7.22076,21.6465 3.5,23.5C 3.5,21.8333 3.5,20.1667 3.5,18.5C 9.5359,14.819 15.5359,11.1523 21.5,7.5 Z"/></g>
<g><path style="opacity:1" fill="#28a9e6" d="M 28.5,7.5 C 33.9443,6.89166 38.9443,7.55833 43.5,9.5C 39.6277,11.5974 35.961,13.9308 32.5,16.5C 29.8333,13.8333 27.1667,13.8333 24.5,16.5C 23.5084,16.3284 22.8417,16.6618 22.5,17.5C 20.7867,15.1496 18.4534,14.1496 15.5,14.5C 20.5088,13.4945 24.8421,11.1612 28.5,7.5 Z"/></g>
<g><path style="opacity:1" fill="#f1f8fb" d="M 15.5,14.5 C 18.4534,14.1496 20.7867,15.1496 22.5,17.5C 23.0277,23.4486 20.6943,27.7819 15.5,30.5C 14.8933,30.3764 14.56,30.0431 14.5,29.5C 18.1703,28.1718 19.837,25.5051 19.5,21.5C 15.062,22.5749 13.062,20.9083 13.5,16.5C 14.5,16.1667 15.1667,15.5 15.5,14.5 Z"/></g>
<g><path style="opacity:1" fill="#f1f7fb" d="M 32.5,16.5 C 33.8183,20.2744 33.485,23.941 31.5,27.5C 30.027,28.7401 28.3604,29.7401 26.5,30.5C 25.8933,30.3764 25.56,30.0431 25.5,29.5C 29.1703,28.1718 30.837,25.5051 30.5,21.5C 26.062,22.5749 24.062,20.9083 24.5,16.5C 27.1667,13.8333 29.8333,13.8333 32.5,16.5 Z"/></g>
<g><path style="opacity:1" fill="#1e9adf" d="M 43.5,9.5 C 43.5,13.5 43.5,17.5 43.5,21.5C 39.4557,24.1898 35.4557,26.1898 31.5,27.5C 33.485,23.941 33.8183,20.2744 32.5,16.5C 35.961,13.9308 39.6277,11.5974 43.5,9.5 Z"/></g>
<g><path style="opacity:1" fill="#2ba6e4" d="M 13.5,16.5 C 13.062,20.9083 15.062,22.5749 19.5,21.5C 19.837,25.5051 18.1703,28.1718 14.5,29.5C 13.7494,28.4265 12.7494,28.2599 11.5,29C 9.18291,31.1569 6.51624,32.6569 3.5,33.5C 3.5,30.1667 3.5,26.8333 3.5,23.5C 7.22076,21.6465 10.5541,19.3131 13.5,16.5 Z"/></g>
<g><path style="opacity:0.993" fill="#1492de" d="M 43.5,21.5 C 43.5,23.5 43.5,25.5 43.5,27.5C 37.3214,30.0846 31.6547,33.418 26.5,37.5C 22.7653,39.7246 19.432,42.558 16.5,46C 15.552,46.4828 14.552,46.6495 13.5,46.5C 13.81,43.2869 13.4767,40.2869 12.5,37.5C 16.6301,34.5968 20.9634,31.9301 25.5,29.5C 25.56,30.0431 25.8933,30.3764 26.5,30.5C 28.3604,29.7401 30.027,28.7401 31.5,27.5C 35.4557,26.1898 39.4557,24.1898 43.5,21.5 Z"/></g>
<g><path style="opacity:1" fill="#239ce0" d="M 24.5,16.5 C 24.062,20.9083 26.062,22.5749 30.5,21.5C 30.837,25.5051 29.1703,28.1718 25.5,29.5C 20.9634,31.9301 16.6301,34.5968 12.5,37.5C 9.5,37.5 6.5,37.5 3.5,37.5C 3.5,36.1667 3.5,34.8333 3.5,33.5C 6.51624,32.6569 9.18291,31.1569 11.5,29C 12.7494,28.2599 13.7494,28.4265 14.5,29.5C 14.56,30.0431 14.8933,30.3764 15.5,30.5C 20.6943,27.7819 23.0277,23.4486 22.5,17.5C 22.8417,16.6618 23.5084,16.3284 24.5,16.5 Z"/></g>
<g><path style="opacity:1" fill="#0f8bdb" d="M 43.5,27.5 C 43.5,30.8333 43.5,34.1667 43.5,37.5C 37.8333,37.5 32.1667,37.5 26.5,37.5C 31.6547,33.418 37.3214,30.0846 43.5,27.5 Z"/></g>
</svg>
