<?xml version="1.0" encoding="UTF-8"?>
<!DOCTYPE svg PUBLIC "-//W3C//DTD SVG 1.1//EN" "http://www.w3.org/Graphics/SVG/1.1/DTD/svg11.dtd">
<svg xmlns="http://www.w3.org/2000/svg" version="1.1" width="225px" height="90px" style="shape-rendering:geometricPrecision; text-rendering:geometricPrecision; image-rendering:optimizeQuality; fill-rule:evenodd; clip-rule:evenodd" xmlns:xlink="http://www.w3.org/1999/xlink">
<g><path style="opacity:0.783" fill="#fefffe" d="M 80.5,18.5 C 82.451,18.2267 83.951,18.8934 85,20.5C 85.8362,27.8564 86.8362,35.1898 88,42.5C 88.513,44.5206 89.6797,46.0206 91.5,47C 90.6433,47.6891 89.9767,48.5224 89.5,49.5C 91.4555,54.6955 92.7888,60.0289 93.5,65.5C 92.0222,65.762 90.6888,65.4287 89.5,64.5C 87.7012,60.3036 86.3679,55.9703 85.5,51.5C 83.4357,51.687 81.4357,52.187 79.5,53C 78.7224,56.1468 77.8891,59.3135 77,62.5C 76,63.8333 75,63.8333 74,62.5C 73.9091,55.1262 74.5758,47.7928 76,40.5C 78.446,33.3372 79.946,26.0039 80.5,18.5 Z M 81.5,32.5 C 82.294,36.9421 83.294,41.4421 84.5,46C 83.0953,47.2692 81.4286,47.7692 79.5,47.5C 80.4918,42.5484 81.1584,37.5484 81.5,32.5 Z"/></g>
<g><path style="opacity:0.784" fill="#fefffe" d="M 170.5,22.5 C 172.604,22.2011 174.604,22.5344 176.5,23.5C 173.963,25.2674 171.297,26.7674 168.5,28C 172.054,35.9926 175.221,44.1592 178,52.5C 180.092,59.0668 177.759,62.0668 171,61.5C 168.075,61.4771 165.241,60.9771 162.5,60C 158.295,56.3721 158.628,53.5388 163.5,51.5C 164.11,55.4437 166.443,57.7771 170.5,58.5C 172.497,58.0142 173.831,56.8475 174.5,55C 171.067,46.2 167.733,37.3666 164.5,28.5C 160.651,30.7648 156.651,32.4314 152.5,33.5C 152.286,31.8561 152.62,30.3561 153.5,29C 150.688,28.5343 148.021,29.0343 145.5,30.5C 148.837,40.5049 152.17,50.5049 155.5,60.5C 155.281,62.9153 153.948,63.9153 151.5,63.5C 147.764,52.6249 144.431,41.6249 141.5,30.5C 136.203,31.2745 130.87,31.6079 125.5,31.5C 125.5,30.5 125.5,29.5 125.5,28.5C 139.207,26.5409 153.207,25.0409 167.5,24C 168.737,23.7679 169.737,23.2679 170.5,22.5 Z"/></g>
<g><path style="opacity:0.773" fill="#fefffe" d="M 27.5,26.5 C 32.1785,26.3342 36.8452,26.5008 41.5,27C 43.9845,29.2838 44.1511,31.7838 42,34.5C 37,39.1667 32,43.8333 27,48.5C 24.9243,53.4793 26.7576,56.3126 32.5,57C 38.1667,58 43.8333,59 49.5,60C 51.8633,60.5885 52.8633,62.0885 52.5,64.5C 44.8362,63.1673 37.1695,61.834 29.5,60.5C 29.5,61.8333 29.5,63.1667 29.5,64.5C 27.0968,64.607 25.2635,63.607 24,61.5C 19.8649,53.7969 17.0315,45.6302 15.5,37C 16.0172,34.923 16.6839,32.923 17.5,31C 20.8153,29.1702 24.1486,27.6702 27.5,26.5 Z M 34.5,28.5 C 35.7079,29.2341 37.0413,29.5674 38.5,29.5C 38.6495,30.552 38.4828,31.552 38,32.5C 32.6988,36.7998 27.6988,41.4664 23,46.5C 21.3528,42.578 20.3528,38.578 20,34.5C 24.581,31.5923 29.4143,29.5923 34.5,28.5 Z"/></g>
<g><path style="opacity:0.766" fill="#fefffe" d="M 62.5,26.5 C 64.924,26.1924 67.2573,26.5258 69.5,27.5C 67.2075,29.2577 64.5409,30.4244 61.5,31C 57.9069,33.6894 56.0735,37.1894 56,41.5C 58.5448,40.4782 61.0448,39.3116 63.5,38C 65.5787,37.1923 67.5787,37.359 69.5,38.5C 64.8247,41.8395 59.8247,44.6729 54.5,47C 53.237,51.971 55.0703,55.471 60,57.5C 62.8869,56.4522 65.3869,54.7855 67.5,52.5C 68.3081,52.8076 68.9747,53.3076 69.5,54C 68.8957,56.4675 67.5624,58.4675 65.5,60C 53.8908,62.6838 48.2242,58.0172 48.5,46C 50.788,41.652 51.9546,37.152 52,32.5C 54.793,29.0266 58.293,27.0266 62.5,26.5 Z"/></g>
<g><path style="opacity:0.773" fill="#fefffe" d="M 198.5,27.5 C 200.833,27.5 203.167,27.5 205.5,27.5C 205.737,31.2733 205.237,34.9399 204,38.5C 203.586,38.9574 203.086,39.2907 202.5,39.5C 201.52,36.9135 201.187,34.2469 201.5,31.5C 195.592,32.4604 190.925,35.4604 187.5,40.5C 188.09,41.7989 189.09,42.6322 190.5,43C 196.292,43.8736 201.959,45.2069 207.5,47C 211.338,53.5853 209.671,58.252 202.5,61C 198.577,61.7927 194.744,61.626 191,60.5C 190.955,56.1763 192.621,55.5096 196,58.5C 200.309,57.9341 203.476,55.7674 205.5,52C 205.18,50.3468 204.18,49.3468 202.5,49C 196.208,48.3705 190.208,46.8705 184.5,44.5C 182.431,39.5151 183.764,35.6818 188.5,33C 191.767,30.8703 195.1,29.037 198.5,27.5 Z"/></g>
<g><path style="opacity:0.757" fill="#fefffe" d="M 108.5,29.5 C 110.288,29.2148 111.955,29.5481 113.5,30.5C 108.403,37.1951 105.07,44.6951 103.5,53C 103.527,55.3633 104.694,56.8633 107,57.5C 114.748,54.9182 120.915,50.2515 125.5,43.5C 127.941,45.5282 128.108,47.8616 126,50.5C 119.821,58.7822 111.654,61.9489 101.5,60C 98.9035,57.6833 98.0701,54.85 99,51.5C 100.914,43.5792 104.081,36.2459 108.5,29.5 Z"/></g>
</svg>
