<?xml version="1.0" encoding="UTF-8"?>
<!DOCTYPE svg PUBLIC "-//W3C//DTD SVG 1.1//EN" "http://www.w3.org/Graphics/SVG/1.1/DTD/svg11.dtd">
<svg xmlns="http://www.w3.org/2000/svg" version="1.1" width="20px" height="16px" style="shape-rendering:geometricPrecision; text-rendering:geometricPrecision; image-rendering:optimizeQuality; fill-rule:evenodd; clip-rule:evenodd" xmlns:xlink="http://www.w3.org/1999/xlink">
<g><path style="opacity:0.707" fill="#65dbfc" d="M 3.5,-0.5 C 7.5,-0.5 11.5,-0.5 15.5,-0.5C 16.5,1.16667 17.8333,2.5 19.5,3.5C 19.5,4.83333 19.5,6.16667 19.5,7.5C 18.1667,6.83333 16.8333,6.16667 15.5,5.5C 15.1667,1.5 14.8333,1.5 14.5,5.5C 13.448,5.64945 12.448,5.48278 11.5,5C 10.1667,4.33333 10.1667,3.66667 11.5,3C 10.1667,2.33333 8.83333,2.33333 7.5,3C 8.83333,3.66667 8.83333,4.33333 7.5,5C 6.55198,5.48278 5.55198,5.64945 4.5,5.5C 4.30678,1.55096 3.80678,1.55096 3,5.5C 1.88732,6.30501 0.72065,6.97168 -0.5,7.5C -0.5,6.16667 -0.5,4.83333 -0.5,3.5C 1.16667,2.5 2.5,1.16667 3.5,-0.5 Z"/></g>
<g><path style="opacity:1" fill="#bfe9f5" d="M 15.5,5.5 C 13.2958,6.44481 10.9625,6.61147 8.5,6C 6.3652,7.55574 6.03187,9.38907 7.5,11.5C 6.5,11.5 5.5,11.5 4.5,11.5C 4.5,12.8333 4.5,14.1667 4.5,15.5C 4.16667,15.5 3.83333,15.5 3.5,15.5C 3.5,15.1667 3.5,14.8333 3.5,14.5C 3.65735,11.656 2.32402,9.98935 -0.5,9.5C -0.5,8.83333 -0.5,8.16667 -0.5,7.5C 0.72065,6.97168 1.88732,6.30501 3,5.5C 3.80678,1.55096 4.30678,1.55096 4.5,5.5C 5.55198,5.64945 6.55198,5.48278 7.5,5C 8.83333,4.33333 8.83333,3.66667 7.5,3C 8.83333,2.33333 10.1667,2.33333 11.5,3C 10.1667,3.66667 10.1667,4.33333 11.5,5C 12.448,5.48278 13.448,5.64945 14.5,5.5C 14.8333,1.5 15.1667,1.5 15.5,5.5 Z"/></g>
<g><path style="opacity:1" fill="#a3e5f7" d="M 15.5,5.5 C 16.8333,6.16667 18.1667,6.83333 19.5,7.5C 19.5,8.16667 19.5,8.83333 19.5,9.5C 17.2104,11.0329 16.5437,10.6996 17.5,8.5C 16.675,7.61432 15.675,7.28099 14.5,7.5C 12.7986,8.21141 11.7986,9.54475 11.5,11.5C 10.1667,11.5 8.83333,11.5 7.5,11.5C 6.03187,9.38907 6.3652,7.55574 8.5,6C 10.9625,6.61147 13.2958,6.44481 15.5,5.5 Z"/></g>
<g><path style="opacity:1" fill="#5edafc" d="M 1.5,7.5 C 2.67504,7.28099 3.67504,7.61432 4.5,8.5C 2.94835,9.79789 1.94835,9.46455 1.5,7.5 Z"/></g>
<g><path style="opacity:1" fill="#f3f2f1" d="M 8.5,7.5 C 10.337,7.63945 10.6704,8.30612 9.5,9.5C 8.70245,9.04311 8.36912,8.37644 8.5,7.5 Z"/></g>
<g><path style="opacity:0.153" fill="#68dcfc" d="M -0.5,9.5 C 2.32402,9.98935 3.65735,11.656 3.5,14.5C 2.16667,13.5 0.833333,12.5 -0.5,11.5C -0.5,10.8333 -0.5,10.1667 -0.5,9.5 Z"/></g>
<g><path style="opacity:1" fill="#cbecf4" d="M 14.5,7.5 C 14.9926,9.80562 15.3259,12.139 15.5,14.5C 15.5,14.8333 15.5,15.1667 15.5,15.5C 15.1667,15.5 14.8333,15.5 14.5,15.5C 14.5,14.1667 14.5,12.8333 14.5,11.5C 13.5,11.5 12.5,11.5 11.5,11.5C 11.7986,9.54475 12.7986,8.21141 14.5,7.5 Z"/></g>
<g><path style="opacity:1" fill="#c0eaf5" d="M 7.5,11.5 C 8.83333,11.5 10.1667,11.5 11.5,11.5C 10.853,13.1405 9.85298,14.4739 8.5,15.5C 7.83333,15.5 7.16667,15.5 6.5,15.5C 8.13758,14.2954 8.47091,12.9621 7.5,11.5 Z"/></g>
<g><path style="opacity:0.635" fill="#6ddcfb" d="M 14.5,7.5 C 15.675,7.28099 16.675,7.61432 17.5,8.5C 16.5437,10.6996 17.2104,11.0329 19.5,9.5C 19.5,10.1667 19.5,10.8333 19.5,11.5C 18.1667,12.5 16.8333,13.5 15.5,14.5C 15.3259,12.139 14.9926,9.80562 14.5,7.5 Z"/></g>
<g><path style="opacity:1" fill="#7cdffa" d="M 11.5,11.5 C 12.5,11.5 13.5,11.5 14.5,11.5C 14.5,12.8333 14.5,14.1667 14.5,15.5C 12.5,15.5 10.5,15.5 8.5,15.5C 9.85298,14.4739 10.853,13.1405 11.5,11.5 Z"/></g>
<g><path style="opacity:0.925" fill="#77defa" d="M 7.5,11.5 C 8.47091,12.9621 8.13758,14.2954 6.5,15.5C 5.83333,15.5 5.16667,15.5 4.5,15.5C 4.5,14.1667 4.5,12.8333 4.5,11.5C 5.5,11.5 6.5,11.5 7.5,11.5 Z"/></g>
</svg>
