<?xml version="1.0" encoding="UTF-8"?>
<!DOCTYPE svg PUBLIC "-//W3C//DTD SVG 1.1//EN" "http://www.w3.org/Graphics/SVG/1.1/DTD/svg11.dtd">
<svg xmlns="http://www.w3.org/2000/svg" version="1.1" width="302px" height="90px" style="shape-rendering:geometricPrecision; text-rendering:geometricPrecision; image-rendering:optimizeQuality; fill-rule:evenodd; clip-rule:evenodd" xmlns:xlink="http://www.w3.org/1999/xlink">
<g><path style="opacity:0.788" fill="#fefffe" d="M 54.5,16.5 C 56.1667,16.5 57.8333,16.5 59.5,16.5C 59.5915,22.7524 58.9248,28.919 57.5,35C 58.6875,36.9441 60.3542,38.4441 62.5,39.5C 61.3803,41.5962 59.8803,41.9295 58,40.5C 57.9143,49.232 58.7477,57.8986 60.5,66.5C 60.2534,69.0815 58.92,69.9149 56.5,69C 55.7734,67.6012 55.2734,66.1012 55,64.5C 54.0211,55.8586 53.3544,47.1919 53,38.5C 48.7061,35.9302 44.8727,32.7635 41.5,29C 37.8125,28.5499 34.1458,28.7166 30.5,29.5C 31.8883,37.8323 34.3883,45.8323 38,53.5C 39.0429,56.7568 39.5429,60.0901 39.5,63.5C 38.1667,63.5 36.8333,63.5 35.5,63.5C 32.3862,52.8219 29.0528,42.1552 25.5,31.5C 20.2977,31.326 14.9644,31.326 9.5,31.5C 9.5,30.5 9.5,29.5 9.5,28.5C 15.4456,28.1175 21.2789,27.1175 27,25.5C 27.772,25.6448 28.4387,25.9781 29,26.5C 36.7387,24.6266 44.5721,24.2933 52.5,25.5C 50.9412,27.1307 48.9412,27.964 46.5,28C 48.6414,29.3076 50.6414,30.8076 52.5,32.5C 54.402,27.2011 55.0687,21.8678 54.5,16.5 Z"/></g>
<g><path style="opacity:0.76" fill="#fefffe" d="M 71.5,23.5 C 74.5184,23.3354 77.5184,23.502 80.5,24C 82.4777,27.9331 82.9777,32.0998 82,36.5C 79.9604,42.2072 77.4604,47.7072 74.5,53C 77.0719,56.0571 78.4052,59.5571 78.5,63.5C 77.1667,63.5 75.8333,63.5 74.5,63.5C 72.0476,58.5952 69.5476,53.5952 67,48.5C 65.202,43.3219 64.202,37.9885 64,32.5C 62.2911,35.0793 61.1244,34.746 60.5,31.5C 60.8757,29.6171 61.8757,28.1171 63.5,27C 66.3093,25.9066 68.976,24.7399 71.5,23.5 Z M 75.5,26.5 C 78.2364,28.8579 79.0698,31.8579 78,35.5C 76.5272,39.7789 74.5272,43.7789 72,47.5C 70.019,41.7703 68.519,35.937 67.5,30C 70.3093,28.9066 72.976,27.7399 75.5,26.5 Z"/></g>
<g><path style="opacity:0.772" fill="#fefffe" d="M 246.5,23.5 C 249.518,23.3354 252.518,23.502 255.5,24C 256.46,25.4194 257.293,26.9194 258,28.5C 271.129,25.6608 284.629,24.6608 298.5,25.5C 297.975,26.1924 297.308,26.6924 296.5,27C 289.48,27.7525 282.48,28.5859 275.5,29.5C 277.624,38.7064 280.457,47.7064 284,56.5C 284.497,58.8098 284.663,61.1432 284.5,63.5C 283.167,63.5 281.833,63.5 280.5,63.5C 280.66,61.8008 280.494,60.1341 280,58.5C 276.337,49.6776 273.17,40.6776 270.5,31.5C 266.297,31.2738 261.964,31.2738 257.5,31.5C 257.395,35.3189 256.562,38.9855 255,42.5C 252.777,45.7792 250.943,49.2792 249.5,53C 252.072,56.0571 253.405,59.5571 253.5,63.5C 252.167,63.5 250.833,63.5 249.5,63.5C 247.048,58.5952 244.548,53.5952 242,48.5C 240.202,43.3219 239.202,37.9885 239,32.5C 237.291,35.0793 236.124,34.746 235.5,31.5C 235.876,29.6171 236.876,28.1171 238.5,27C 241.309,25.9066 243.976,24.7399 246.5,23.5 Z M 250.5,26.5 C 253.236,28.8579 254.07,31.8579 253,35.5C 251.527,39.7789 249.527,43.7789 247,47.5C 245.019,41.7703 243.519,35.937 242.5,30C 245.309,28.9066 247.976,27.7399 250.5,26.5 Z"/></g>
<g><path style="opacity:0.761" fill="#fefffe" d="M 100.5,26.5 C 102.604,26.2011 104.604,26.5344 106.5,27.5C 106.333,27.8333 106.167,28.1667 106,28.5C 103.04,29.2858 100.206,30.4525 97.5,32C 95.4552,34.5864 93.7885,37.4198 92.5,40.5C 92.8333,40.8333 93.1667,41.1667 93.5,41.5C 97.5114,38.5966 101.845,37.5966 106.5,38.5C 102.232,42.4682 97.2323,45.1348 91.5,46.5C 90.395,53.8701 93.395,57.0368 100.5,56C 102.303,55.3632 103.636,54.1965 104.5,52.5C 107.399,55.738 106.732,58.238 102.5,60C 91.6162,62.7561 86.6162,58.7561 87.5,48C 86.572,47.6121 85.9054,46.9454 85.5,46C 88.4786,41.4123 89.9786,36.579 90,31.5C 93.1466,28.8409 96.6466,27.1743 100.5,26.5 Z"/></g>
<g><path style="opacity:0.771" fill="#fefffe" d="M 184.5,26.5 C 188.846,26.3343 193.179,26.501 197.5,27C 199.032,27.6995 200.032,28.8662 200.5,30.5C 195.219,37.2836 189.386,43.617 183,49.5C 180.866,51.5784 181.032,53.4117 183.5,55C 189.638,57.3276 195.972,58.8276 202.5,59.5C 203.354,58.4783 204.354,57.6449 205.5,57C 209.816,56.0036 214.149,55.1703 218.5,54.5C 217.628,47.7249 216.295,41.0582 214.5,34.5C 212.278,35.7783 209.944,36.7783 207.5,37.5C 204.149,37.012 203.816,35.8453 206.5,34C 212.616,29.7449 219.283,28.2449 226.5,29.5C 223.694,30.1051 221.36,31.4384 219.5,33.5C 220.824,39.7754 221.824,46.1087 222.5,52.5C 226.71,51.7393 230.877,50.7393 235,49.5C 238.038,50.5446 238.038,51.8779 235,53.5C 231.255,54.8944 227.422,55.8944 223.5,56.5C 223.5,57.8333 223.5,59.1667 223.5,60.5C 218.544,58.1721 213.544,58.3388 208.5,61C 209.337,62.0113 209.67,63.1779 209.5,64.5C 201.992,63.3318 194.492,61.9984 187,60.5C 187.128,62.1292 186.128,63.4625 184,64.5C 179.491,60.1627 176.491,54.8294 175,48.5C 173.032,43.307 172.366,37.9736 173,32.5C 176.372,29.4442 180.206,27.4442 184.5,26.5 Z M 190.5,28.5 C 192.989,28.5394 194.489,29.5394 195,31.5C 189.914,36.5171 184.914,41.5171 180,46.5C 177.742,42.8032 176.742,38.8032 177,34.5C 181.27,31.8061 185.77,29.8061 190.5,28.5 Z"/></g>
<g><path style="opacity:0.77" fill="#fefffe" d="M 125.5,27.5 C 127.833,27.5 130.167,27.5 132.5,27.5C 132.737,31.2733 132.237,34.9399 131,38.5C 130.586,38.9574 130.086,39.2907 129.5,39.5C 128.52,36.9135 128.187,34.2469 128.5,31.5C 122.34,32.4171 117.673,35.5838 114.5,41C 115.328,41.9147 116.328,42.5814 117.5,43C 123.292,43.8736 128.959,45.2069 134.5,47C 138.559,53.3613 136.893,58.028 129.5,61C 125.577,61.7927 121.744,61.626 118,60.5C 117.955,56.1763 119.621,55.5096 123,58.5C 127.309,57.9341 130.476,55.7674 132.5,52C 132.18,50.3468 131.18,49.3468 129.5,49C 125.531,48.1473 121.531,47.4807 117.5,47C 108.947,43.6741 108.28,39.0074 115.5,33C 118.767,30.8703 122.1,29.037 125.5,27.5 Z"/></g>
<g><path style="opacity:0.759" fill="#fefffe" d="M 149.5,29.5 C 151.429,29.2308 153.095,29.7308 154.5,31C 148.239,38.3553 144.905,46.8553 144.5,56.5C 147.862,57.3425 151.195,56.8425 154.5,55C 159.008,51.658 163.008,47.8246 166.5,43.5C 168.941,45.5282 169.108,47.8616 167,50.5C 160.821,58.7822 152.654,61.9489 142.5,60C 139.806,57.3466 138.973,54.1799 140,50.5C 142.101,42.9681 145.268,35.9681 149.5,29.5 Z"/></g>
</svg>
